# xmcd
#
# Track frame offsets:
#	150
#	17022
#	27747
#	41695
#	52197
#	72742
#	85762
#	99650
#	118872
#	137542
#	153877
#	169720
#	184590
#	197845
#	208947
#	224697
#	243897
#	264625
#	279895
#	292900
#
# Disc length: 4094 seconds
#
# Revision: 2
# Processed by: cddbd v1.5.1PL0 Copyright (c) Steve Scherf et al.
# Submitted via: EasyCDDAExtractor 7.0.5.4
#
DISCID=300ffc14
DTITLE=Lea Laven - 20 Suosituinta - Lea Laven
DYEAR=1900
DGENRE=Country
TTITLE0=Merimies kotimaasi onmeri
TTITLE1=Käy ohitsein
TTITLE2=Sovitaanks näin
TTITLE3=Putti putti
TTITLE4=Rakkaus
TTITLE5=Sanat murenevat
TTITLE6=Kriminal tango
TTITLE7=Mustasukkaisuutta
TTITLE8=Kortit kertoo kohtalomme
TTITLE9=Muistojen hehku
TTITLE10=Tumma nainen
TTITLE11=Pitsihelmainen tyttö
TTITLE12=Olet mulle toisenlainen
TTITLE13=Rakkauskukka
TTITLE14=Kaunista Veeraa
TTITLE15=Pikku lurjus
TTITLE16=Mun pakko kertoa on sulle tää
TTITLE17=Lienen vanhanaikainen
TTITLE18=Toukokuu
TTITLE19=Musta yö ja meri äänetön
EXTD=
EXTT0=
EXTT1=
EXTT2=
EXTT3=
EXTT4=
EXTT5=
EXTT6=
EXTT7=
EXTT8=
EXTT9=
EXTT10=
EXTT11=
EXTT12=
EXTT13=
EXTT14=
EXTT15=
EXTT16=
EXTT17=
EXTT18=
EXTT19=
PLAYORDER=
